<svg width="100%" viewBox="0 0 680 478" role="img" xmlns="http://www.w3.org/2000/svg">
<title>use_me engagement phases</title>
<desc>Four sequential red team phases: reconnaissance, scanning and enumeration, exploitation, and post-exploitation, each with its tool count.</desc>
<defs>
<marker id="arr3" viewBox="0 0 10 10" refX="8" refY="5" markerWidth="7" markerHeight="7" orient="auto-start-reverse">
<path d="M0 0 L10 5 L0 10 z" fill="#9ca3af"/>
</marker>
</defs>
<text x="340" y="32" text-anchor="middle" fill="#8b8b8b" font-family="sans-serif" font-size="14">Engagement phases</text>

<g>
<rect x="140" y="58" width="400" height="72" rx="12" fill="#2563eb"/>
<circle cx="180" cy="94" r="22" fill="#1e40af"/>
<text x="180" y="94" text-anchor="middle" dominant-baseline="central" fill="#ffffff" font-family="sans-serif" font-size="18" font-weight="500">01</text>
<text x="222" y="86" fill="#ffffff" font-family="sans-serif" font-size="17" font-weight="500">Reconnaissance</text>
<text x="222" y="108" fill="#dbeafe" font-family="sans-serif" font-size="13">Passive collection - no contact</text>
<rect x="444" y="81" width="82" height="26" rx="13" fill="#ffffff" fill-opacity="0.2"/>
<text x="485" y="94" text-anchor="middle" dominant-baseline="central" fill="#ffffff" font-family="sans-serif" font-size="12">4 tools</text>
</g>
<line x1="340" y1="130" x2="340" y2="160" stroke="#9ca3af" stroke-width="2" marker-end="url(#arr3)"/>

<g>
<rect x="140" y="164" width="400" height="72" rx="12" fill="#0d9488"/>
<circle cx="180" cy="200" r="22" fill="#0f766e"/>
<text x="180" y="200" text-anchor="middle" dominant-baseline="central" fill="#ffffff" font-family="sans-serif" font-size="18" font-weight="500">02</text>
<text x="222" y="192" fill="#ffffff" font-family="sans-serif" font-size="17" font-weight="500">Scanning and enumeration</text>
<text x="222" y="214" fill="#ccfbf1" font-family="sans-serif" font-size="13">Map the attack surface</text>
<rect x="444" y="187" width="82" height="26" rx="13" fill="#ffffff" fill-opacity="0.2"/>
<text x="485" y="200" text-anchor="middle" dominant-baseline="central" fill="#ffffff" font-family="sans-serif" font-size="12">3 tools</text>
</g>
<line x1="340" y1="236" x2="340" y2="266" stroke="#9ca3af" stroke-width="2" marker-end="url(#arr3)"/>

<g>
<rect x="140" y="270" width="400" height="72" rx="12" fill="#d97706"/>
<circle cx="180" cy="306" r="22" fill="#b45309"/>
<text x="180" y="306" text-anchor="middle" dominant-baseline="central" fill="#ffffff" font-family="sans-serif" font-size="18" font-weight="500">03</text>
<text x="222" y="298" fill="#ffffff" font-family="sans-serif" font-size="17" font-weight="500">Exploitation</text>
<text x="222" y="320" fill="#fef3c7" font-family="sans-serif" font-size="13">Gain initial access</text>
<rect x="444" y="293" width="82" height="26" rx="13" fill="#ffffff" fill-opacity="0.2"/>
<text x="485" y="306" text-anchor="middle" dominant-baseline="central" fill="#ffffff" font-family="sans-serif" font-size="12">2 tools</text>
</g>
<line x1="340" y1="342" x2="340" y2="372" stroke="#9ca3af" stroke-width="2" marker-end="url(#arr3)"/>

<g>
<rect x="140" y="376" width="400" height="72" rx="12" fill="#dc2626"/>
<circle cx="180" cy="412" r="22" fill="#991b1b"/>
<text x="180" y="412" text-anchor="middle" dominant-baseline="central" fill="#ffffff" font-family="sans-serif" font-size="18" font-weight="500">04</text>
<text x="222" y="404" fill="#ffffff" font-family="sans-serif" font-size="17" font-weight="500">Post-exploitation</text>
<text x="222" y="426" fill="#fee2e2" font-family="sans-serif" font-size="13">Escalate, move, persist</text>
<rect x="444" y="399" width="82" height="26" rx="13" fill="#ffffff" fill-opacity="0.2"/>
<text x="485" y="412" text-anchor="middle" dominant-baseline="central" fill="#ffffff" font-family="sans-serif" font-size="12">5 tools</text>
</g>
</svg>
