<svg width="100%" viewBox="0 0 680 510" role="img" xmlns="http://www.w3.org/2000/svg">
<title>use_me engagement phases</title>
<desc>Four sequential red team phases - reconnaissance, scanning and enumeration, exploitation, post-exploitation - with a separate cross-phase utilities category supporting all of them.</desc>
<defs>
<marker id="arr2" viewBox="0 0 10 10" refX="8" refY="5" markerWidth="7" markerHeight="7" orient="auto-start-reverse">
<path d="M0 0 L10 5 L0 10 z" fill="#9ca3af"/>
</marker>
</defs>
<text x="270" y="32" text-anchor="middle" fill="#8b8b8b" font-family="sans-serif" font-size="14">Engagement phases</text>

<g>
<rect x="40" y="58" width="400" height="72" rx="12" fill="#2563eb"/>
<circle cx="80" cy="94" r="22" fill="#1e40af"/>
<text x="80" y="94" text-anchor="middle" dominant-baseline="central" fill="#ffffff" font-family="sans-serif" font-size="18" font-weight="500">01</text>
<text x="122" y="86" fill="#ffffff" font-family="sans-serif" font-size="17" font-weight="500">Reconnaissance</text>
<text x="122" y="108" fill="#dbeafe" font-family="sans-serif" font-size="13">Passive collection - no contact</text>
<rect x="344" y="81" width="82" height="26" rx="13" fill="#ffffff" fill-opacity="0.2"/>
<text x="385" y="94" text-anchor="middle" dominant-baseline="central" fill="#ffffff" font-family="sans-serif" font-size="12">5 tools</text>
</g>
<line x1="240" y1="130" x2="240" y2="160" stroke="#9ca3af" stroke-width="2" marker-end="url(#arr2)"/>

<g>
<rect x="40" y="164" width="400" height="72" rx="12" fill="#0d9488"/>
<circle cx="80" cy="200" r="22" fill="#0f766e"/>
<text x="80" y="200" text-anchor="middle" dominant-baseline="central" fill="#ffffff" font-family="sans-serif" font-size="18" font-weight="500">02</text>
<text x="122" y="192" fill="#ffffff" font-family="sans-serif" font-size="17" font-weight="500">Scanning and enumeration</text>
<text x="122" y="214" fill="#ccfbf1" font-family="sans-serif" font-size="13">Map the attack surface</text>
<rect x="344" y="187" width="82" height="26" rx="13" fill="#ffffff" fill-opacity="0.2"/>
<text x="385" y="200" text-anchor="middle" dominant-baseline="central" fill="#ffffff" font-family="sans-serif" font-size="12">3 tools</text>
</g>
<line x1="240" y1="236" x2="240" y2="266" stroke="#9ca3af" stroke-width="2" marker-end="url(#arr2)"/>

<g>
<rect x="40" y="270" width="400" height="72" rx="12" fill="#d97706"/>
<circle cx="80" cy="306" r="22" fill="#b45309"/>
<text x="80" y="306" text-anchor="middle" dominant-baseline="central" fill="#ffffff" font-family="sans-serif" font-size="18" font-weight="500">03</text>
<text x="122" y="298" fill="#ffffff" font-family="sans-serif" font-size="17" font-weight="500">Exploitation</text>
<text x="122" y="320" fill="#fef3c7" font-family="sans-serif" font-size="13">Gain initial access</text>
<rect x="344" y="293" width="82" height="26" rx="13" fill="#ffffff" fill-opacity="0.2"/>
<text x="385" y="306" text-anchor="middle" dominant-baseline="central" fill="#ffffff" font-family="sans-serif" font-size="12">2 tools</text>
</g>
<line x1="240" y1="342" x2="240" y2="372" stroke="#9ca3af" stroke-width="2" marker-end="url(#arr2)"/>

<g>
<rect x="40" y="376" width="400" height="72" rx="12" fill="#dc2626"/>
<circle cx="80" cy="412" r="22" fill="#991b1b"/>
<text x="80" y="412" text-anchor="middle" dominant-baseline="central" fill="#ffffff" font-family="sans-serif" font-size="18" font-weight="500">04</text>
<text x="122" y="404" fill="#ffffff" font-family="sans-serif" font-size="17" font-weight="500">Post-exploitation</text>
<text x="122" y="426" fill="#fee2e2" font-family="sans-serif" font-size="13">Escalate, move, persist</text>
<rect x="344" y="399" width="82" height="26" rx="13" fill="#ffffff" fill-opacity="0.2"/>
<text x="385" y="412" text-anchor="middle" dominant-baseline="central" fill="#ffffff" font-family="sans-serif" font-size="12">5 tools</text>
</g>

<line x1="440" y1="306" x2="492" y2="306" stroke="#9ca3af" stroke-width="2" stroke-dasharray="4 4" marker-end="url(#arr2)"/>
<g>
<rect x="496" y="164" width="144" height="284" rx="12" fill="none" stroke="#7c3aed" stroke-width="1.5" stroke-dasharray="5 4"/>
<text x="568" y="232" text-anchor="middle" fill="#7c3aed" font-family="sans-serif" font-size="17" font-weight="500">Utilities</text>
<text x="568" y="268" text-anchor="middle" fill="#8b8b8b" font-family="sans-serif" font-size="12">Cross-phase</text>
<text x="568" y="285" text-anchor="middle" fill="#8b8b8b" font-family="sans-serif" font-size="12">helpers</text>
<text x="568" y="317" text-anchor="middle" fill="#8b8b8b" font-family="sans-serif" font-size="12">Used across</text>
<text x="568" y="334" text-anchor="middle" fill="#8b8b8b" font-family="sans-serif" font-size="12">all phases</text>
<rect x="527" y="392" width="82" height="26" rx="13" fill="#7c3aed" fill-opacity="0.15"/>
<text x="568" y="405" text-anchor="middle" dominant-baseline="central" fill="#7c3aed" font-family="sans-serif" font-size="12">5 tools</text>
</g>
</svg>
